<svg width="668" height="668" viewBox="0 0 668 668" fill="none" xmlns="http://www.w3.org/2000/svg">
<path d="M333.67 667.334C287.559 667.334 244.226 658.578 203.67 641.067C163.115 623.556 127.837 599.811 97.8369 569.834C67.8369 539.834 44.0925 504.556 26.6036 464C9.11469 423.445 0.359136 380.111 0.336914 334C0.336914 287.889 9.09247 244.556 26.6036 204C44.1147 163.445 67.8591 128.167 97.8369 98.167C127.837 68.167 163.115 44.4226 203.67 26.9337C244.226 9.44477 287.559 0.689214 333.67 0.666992C379.781 0.666992 423.115 9.42255 463.67 26.9337C504.226 44.4448 539.504 68.1892 569.504 98.167C599.504 128.167 623.259 163.445 640.77 204C658.281 244.556 667.026 287.889 667.004 334C667.004 380.111 658.248 423.445 640.737 464C623.226 504.556 599.481 539.834 569.504 569.834C539.504 599.834 504.226 623.589 463.67 641.1C423.115 658.611 379.781 667.356 333.67 667.334ZM333.67 600.667C408.115 600.667 471.17 574.834 522.837 523.167C574.504 471.5 600.337 408.445 600.337 334C600.337 259.556 574.504 196.5 522.837 144.834C471.17 93.167 408.115 67.3337 333.67 67.3337C259.226 67.3337 196.17 93.167 144.504 144.834C92.8369 196.5 67.0036 259.556 67.0036 334C67.0036 408.445 92.8369 471.5 144.504 523.167C196.17 574.834 259.226 600.667 333.67 600.667Z" fill="#14E470"/>
</svg>
